<svg width="286" height="286" xmlns="http://www.w3.org/2000/svg">
 <title>Cube</title>

 <g>
  <title>Layer 1</title>
  <rect stroke-width="0" id="svg_9" height="214" width="1" y="36" x="0" stroke="#24f0ea" fill="#24f0ea"/>
  <rect stroke-width="0" id="svg_10" height="286" width="1" y="0" x="36" stroke="#24f0ea" fill="#24f0ea"/>
  <rect stroke-width="0" id="svg_11" height="286" width="1" y="0" x="107" stroke="#24f0ea" fill="#24f0ea"/>
  <rect stroke-width="0" id="svg_12" height="286" width="1" y="0" x="178" stroke="#24f0ea" fill="#24f0ea"/>
  <rect stroke-width="0" id="svg_13" height="286" width="1" y="0" x="249" stroke="#24f0ea" fill="#24f0ea"/>
  <rect stroke-width="0" id="svg_14" height="214" width="1" y="36" x="285" stroke="#24f0ea" fill="#24f0ea"/>
  <rect id="svg_15" height="1" width="214" y="0" x="36" stroke-width="0" stroke="#24f0ea" fill="#24f0ea"/>
  <rect id="svg_16" height="1" width="286" y="36" x="0" stroke-width="0" stroke="#24f0ea" fill="#24f0ea"/>
  <rect id="svg_17" height="1" width="286" y="107" x="0" stroke-width="0" stroke="#24f0ea" fill="#24f0ea"/>
  <rect id="svg_18" height="1" width="286" y="178" x="0" stroke-width="0" stroke="#24f0ea" fill="#24f0ea"/>
  <rect id="svg_19" height="1" width="286" y="249" x="0" stroke-width="0" stroke="#24f0ea" fill="#24f0ea"/>
  <rect id="svg_20" height="1" width="214" y="285" x="36" stroke-width="0" stroke="#24f0ea" fill="#24f0ea"/>
  <rect id="svg_22" height="70" width="70" y="37" x="108" stroke-width="0" stroke="#24f0ea" fill="#a0a2de"/>
  <rect id="svg_24" height="70" width="70" y="108" x="108" stroke-width="0" stroke="#24f0ea" fill="#a0a2de"/>
  <rect id="svg_25" height="70" width="70" y="108" x="37" stroke-width="0" stroke="#24f0ea" fill="#a0a2de"/>
  <rect id="svg_26" height="70" width="70" y="179" x="37" stroke-width="0" stroke="#24f0ea" fill="#a0a2de"/>
  <rect id="svg_27" height="70" width="70" y="108" x="179" stroke-width="0" stroke="#24f0ea" fill="#a0a2de"/>
  <rect id="svg_28" height="70" width="70" y="179" x="179" stroke-width="0" stroke="#24f0ea" fill="#a0a2de"/>
  <rect id="svg_29" height="70" width="70" y="179" x="108" stroke-width="0" stroke="#24f0ea" fill="#a0a2de"/>
  <rect id="svg_30" height="70" width="35" y="37" x="1" stroke-width="0" stroke="#24f0ea" fill="#a0a2de"/>
  <rect id="svg_31" height="70" width="35" y="37" x="250" stroke-width="0" stroke="#24f0ea" fill="#a0a2de"/>
 </g>
</svg>
