<svg font-size="25" width="286" height="286" xmlns="http://www.w3.org/2000/svg">
  <rect x="0"     y="36"    width="1" height="214" stroke-width="0" stroke="#24f0ea" fill="#24f0ea"/>
  <rect x="36"    y="0"     width="1" height="286" stroke-width="0" stroke="#24f0ea" fill="#24f0ea"/>
  <rect x="107"   y="0"     width="1" height="286" stroke-width="0" stroke="#24f0ea" fill="#24f0ea"/>
  <rect x="178"   y="0"     width="1" height="286" stroke-width="0" stroke="#24f0ea" fill="#24f0ea"/>
  <rect x="249"   y="0"     width="1" height="286" stroke-width="0" stroke="#24f0ea" fill="#24f0ea"/>
  <rect x="285"   y="36"    width="1" height="214" stroke-width="0" stroke="#24f0ea" fill="#24f0ea"/>
  <rect x="36"    y="0"     width="214" height="1" stroke-width="0" stroke="#24f0ea" fill="#24f0ea"/>
  <rect x="0"     y="36"    width="286" height="1" stroke-width="0" stroke="#24f0ea" fill="#24f0ea"/>
  <rect x="0"     y="107"   width="286" height="1" stroke-width="0" stroke="#24f0ea" fill="#24f0ea"/>
  <rect x="0"     y="178"   width="286" height="1" stroke-width="0" stroke="#24f0ea" fill="#24f0ea"/>
  <rect x="0"     y="249"   width="286" height="1" stroke-width="0" stroke="#24f0ea" fill="#24f0ea"/>
  <rect x="36"    y="285"   width="214" height="1" stroke-width="0" stroke="#24f0ea" fill="#24f0ea"/>
  <rect x="108"   y="37"    width="70" height="70" stroke-width="0" stroke="#24f0ea" fill="#a0a2de"/>
  <rect x="108"   y="108"   width="70" height="70" stroke-width="0" stroke="#24f0ea" fill="#a0a2de"/>
  <rect x="37"    y="108"   width="70" height="70" stroke-width="0" stroke="#24f0ea" fill="#a0a2de"/>
  <rect x="37"    y="179"   width="70" height="70" stroke-width="0" stroke="#24f0ea" fill="#a0a2de"/>
  <rect x="179"   y="108"   width="70" height="70" stroke-width="0" stroke="#24f0ea" fill="#a0a2de"/>
  <rect x="179"   y="179"   width="70" height="70" stroke-width="0" stroke="#24f0ea" fill="#a0a2de"/>
  <rect x="108"   y="179"   width="70" height="70" stroke-width="0" stroke="#24f0ea" fill="#a0a2de"/>
  <rect x="1"     y="37"    width="35" height="70" stroke-width="0" stroke="#24f0ea" fill="#a0a2de"/>
  <rect x="250"   y="37"    width="35" height="70" stroke-width="0" stroke="#24f0ea" fill="#a0a2de"/>
  <text x="72"    y="18.5"  text-anchor="middle"  dominant-baseline="middle" fill="#24f0ea">子</text>
  <text x="143"   y="18.5"  text-anchor="middle"  dominant-baseline="middle" fill="#24f0ea">丑</text>
  <text x="214"   y="18.5"  text-anchor="middle"  dominant-baseline="middle" fill="#24f0ea">寅</text>
  <text x="72"    y="72"    text-anchor="middle"  dominant-baseline="middle" fill="#24f0ea">卯</text>
  <text x="214"   y="72"    text-anchor="middle"  dominant-baseline="middle" fill="#24f0ea">辰</text>
  <text x="18.5"  y="143"   text-anchor="middle"  dominant-baseline="middle" fill="#24f0ea">巳</text>
  <text x="18.5"  y="214"   text-anchor="middle"  dominant-baseline="middle" fill="#24f0ea">午</text>
  <text x="267.5" y="143"   text-anchor="middle"  dominant-baseline="middle" fill="#24f0ea">未</text>
  <text x="267.5" y="214"   text-anchor="middle"  dominant-baseline="middle" fill="#24f0ea">申</text>
  <text x="72"    y="267.5" text-anchor="middle"  dominant-baseline="middle" fill="#24f0ea">酉</text>
  <text x="143"   y="267.5" text-anchor="middle"  dominant-baseline="middle" fill="#24f0ea">戌</text>
  <text x="214"   y="267.5" text-anchor="middle"  dominant-baseline="middle" fill="#24f0ea">亥</text>
</svg>
