<?xml version="1.0" encoding="UTF-8"?>
<svg version="1.1" xmlns="http://www.w3.org/2000/svg" width="300" height="300">
<path d="M0 0 C99 0 198 0 300 0 C300 99 300 198 300 300 C201 300 102 300 0 300 C0 201 0 102 0 0 Z " fill="#24F0EA" transform="translate(0,0)"/>
<path d="M0 0 C15.18 0 30.36 0 46 0 C46 3.3 46 6.6 46 10 C43.03 10 40.06 10 37 10 C37 12.64 37 15.28 37 18 C42.94 18 48.88 18 55 18 C55 26.91 55 35.82 55 45 C60.28 45 65.56 45 71 45 C71 42.36 71 39.72 71 37 C68.03 37 65.06 37 62 37 C62 28.09 62 19.18 62 10 C59.03 10 56.06 10 53 10 C53 6.7 53 3.4 53 0 C56.3 0 59.6 0 63 0 C63 2.97 63 5.94 63 9 C65.64 9 68.28 9 71 9 C71 6.03 71 3.06 71 0 C74.3 0 77.6 0 81 0 C81 2.97 81 5.94 81 9 C83.64 9 86.28 9 89 9 C89 6.03 89 3.06 89 0 C92.3 0 95.6 0 99 0 C99 2.97 99 5.94 99 9 C101.97 9 104.94 9 108 9 C108 12.3 108 15.6 108 19 C105.03 19 102.06 19 99 19 C99 21.97 99 24.94 99 28 C95.7 28 92.4 28 89 28 C89 25.03 89 22.06 89 19 C86.03 19 83.06 19 80 19 C80 16.03 80 13.06 80 10 C77.36 10 74.72 10 72 10 C72 15.61 72 21.22 72 27 C74.97 27 77.94 27 81 27 C81 32.94 81 38.88 81 45 C83.64 45 86.28 45 89 45 C89 42.03 89 39.06 89 36 C95.27 36 101.54 36 108 36 C108 39.3 108 42.6 108 46 C105.03 46 102.06 46 99 46 C99 48.64 99 51.28 99 54 C101.97 54 104.94 54 108 54 C108 57.3 108 60.6 108 64 C105.03 64 102.06 64 99 64 C99 66.64 99 69.28 99 72 C107.91 72 116.82 72 126 72 C126 74.97 126 77.94 126 81 C128.64 81 131.28 81 134 81 C134 78.03 134 75.06 134 72 C137.3 72 140.6 72 144 72 C144 74.97 144 77.94 144 81 C146.97 81 149.94 81 153 81 C153 83.97 153 86.94 153 90 C155.64 90 158.28 90 161 90 C161 87.03 161 84.06 161 81 C167.27 81 173.54 81 180 81 C180 84.3 180 87.6 180 91 C177.03 91 174.06 91 171 91 C171 99.58 171 108.16 171 117 C173.97 117 176.94 117 180 117 C180 123.27 180 129.54 180 136 C171.09 136 162.18 136 153 136 C153 138.64 153 141.28 153 144 C150.03 144 147.06 144 144 144 C144 146.64 144 149.28 144 152 C149.94 152 155.88 152 162 152 C162 155.3 162 158.6 162 162 C155.73 162 149.46 162 143 162 C143 159.03 143 156.06 143 153 C137.06 153 131.12 153 125 153 C125 144.42 125 135.84 125 127 C119.39 127 113.78 127 108 127 C108 132.28 108 137.56 108 143 C110.97 143 113.94 143 117 143 C117 146.3 117 149.6 117 153 C113.7 153 110.4 153 107 153 C107 150.03 107 147.06 107 144 C104.36 144 101.72 144 99 144 C99 146.97 99 149.94 99 153 C96.03 153 93.06 153 90 153 C90 155.97 90 158.94 90 162 C87.03 162 84.06 162 81 162 C81 164.97 81 167.94 81 171 C77.7 171 74.4 171 71 171 C71 167.7 71 164.4 71 161 C73.97 161 76.94 161 80 161 C80 158.03 80 155.06 80 152 C82.97 152 85.94 152 89 152 C89 149.36 89 146.72 89 144 C77.12 144 65.24 144 53 144 C53 140.7 53 137.4 53 134 C58.94 134 64.88 134 71 134 C71 131.69 71 129.38 71 127 C65.06 127 59.12 127 53 127 C53 123.7 53 120.4 53 117 C58.94 117 64.88 117 71 117 C71 111.39 71 105.78 71 100 C68.36 100 65.72 100 63 100 C63 102.97 63 105.94 63 109 C59.7 109 56.4 109 53 109 C53 106.03 53 103.06 53 100 C41.78 100 30.56 100 19 100 C19 102.97 19 105.94 19 109 C16.03 109 13.06 109 10 109 C10 111.64 10 114.28 10 117 C18.91 117 27.82 117 37 117 C37 119.97 37 122.94 37 126 C39.97 126 42.94 126 46 126 C46 134.91 46 143.82 46 153 C39.73 153 33.46 153 27 153 C27 150.03 27 147.06 27 144 C21.06 144 15.12 144 9 144 C9 140.7 9 137.4 9 134 C11.97 134 14.94 134 18 134 C18 131.69 18 129.38 18 127 C6.45 127 -5.1 127 -17 127 C-17 129.97 -17 132.94 -17 136 C-19.97 136 -22.94 136 -26 136 C-26 138.31 -26 140.62 -26 143 C-23.03 143 -20.06 143 -17 143 C-17 145.97 -17 148.94 -17 152 C-8.09 152 0.82 152 10 152 C10 155.3 10 158.6 10 162 C7.03 162 4.06 162 1 162 C1 164.64 1 167.28 1 170 C3.97 170 6.94 170 10 170 C10 179.24 10 188.48 10 198 C7.03 198 4.06 198 1 198 C1 200.64 1 203.28 1 206 C6.61 206 12.22 206 18 206 C18 197.09 18 188.18 18 179 C32.85 179 47.7 179 63 179 C63 181.97 63 184.94 63 188 C65.64 188 68.28 188 71 188 C71 185.03 71 182.06 71 179 C76.94 179 82.88 179 89 179 C89 176.03 89 173.06 89 170 C91.97 170 94.94 170 98 170 C98 167.03 98 164.06 98 161 C101.3 161 104.6 161 108 161 C108 163.97 108 166.94 108 170 C110.97 170 113.94 170 117 170 C117 172.97 117 175.94 117 179 C119.64 179 122.28 179 125 179 C125 176.03 125 173.06 125 170 C128.3 170 131.6 170 135 170 C135 172.97 135 175.94 135 179 C137.64 179 140.28 179 143 179 C143 176.03 143 173.06 143 170 C149.27 170 155.54 170 162 170 C162 175.94 162 181.88 162 188 C167.94 188 173.88 188 180 188 C180 191.3 180 194.6 180 198 C177.03 198 174.06 198 171 198 C171 203.94 171 209.88 171 216 C168.03 216 165.06 216 162 216 C162 218.64 162 221.28 162 224 C164.97 224 167.94 224 171 224 C171 226.97 171 229.94 171 233 C173.97 233 176.94 233 180 233 C180 236.3 180 239.6 180 243 C177.03 243 174.06 243 171 243 C171 248.94 171 254.88 171 261 C167.7 261 164.4 261 161 261 C161 254.73 161 248.46 161 242 C163.97 242 166.94 242 170 242 C170 239.36 170 236.72 170 234 C158.45 234 146.9 234 135 234 C135 236.97 135 239.94 135 243 C132.03 243 129.06 243 126 243 C126 245.64 126 248.28 126 251 C128.97 251 131.94 251 135 251 C135 254.3 135 257.6 135 261 C122.79 261 110.58 261 98 261 C98 243.18 98 225.36 98 207 C95.36 207 92.72 207 90 207 C90 209.97 90 212.94 90 216 C86.7 216 83.4 216 80 216 C80 213.03 80 210.06 80 207 C74.39 207 68.78 207 63 207 C63 209.64 63 212.28 63 215 C65.97 215 68.94 215 72 215 C72 217.97 72 220.94 72 224 C74.97 224 77.94 224 81 224 C81 227.3 81 230.6 81 234 C77.7 234 74.4 234 71 234 C71 231.03 71 228.06 71 225 C65.06 225 59.12 225 53 225 C53 218.73 53 212.46 53 206 C55.97 206 58.94 206 62 206 C62 200.39 62 194.78 62 189 C59.69 189 57.38 189 55 189 C55 191.97 55 194.94 55 198 C46.09 198 37.18 198 28 198 C28 200.97 28 203.94 28 207 C25.03 207 22.06 207 19 207 C19 209.64 19 212.28 19 215 C24.61 215 30.22 215 36 215 C36 212.03 36 209.06 36 206 C39.3 206 42.6 206 46 206 C46 209.3 46 212.6 46 216 C43.03 216 40.06 216 37 216 C37 218.97 37 221.94 37 225 C27.76 225 18.52 225 9 225 C9 222.03 9 219.06 9 216 C6.03 216 3.06 216 0 216 C0 213.03 0 210.06 0 207 C-2.97 207 -5.94 207 -9 207 C-9 201.06 -9 195.12 -9 189 C-23.85 189 -38.7 189 -54 189 C-54 186.03 -54 183.06 -54 180 C-56.64 180 -59.28 180 -62 180 C-62 182.97 -62 185.94 -62 189 C-65.3 189 -68.6 189 -72 189 C-72 185.7 -72 182.4 -72 179 C-69.03 179 -66.06 179 -63 179 C-63 176.03 -63 173.06 -63 170 C-60.03 170 -57.06 170 -54 170 C-54 164.39 -54 158.78 -54 153 C-56.97 153 -59.94 153 -63 153 C-63 150.03 -63 147.06 -63 144 C-68.94 144 -74.88 144 -81 144 C-81 132.12 -81 120.24 -81 108 C-74.73 108 -68.46 108 -62 108 C-62 110.97 -62 113.94 -62 117 C-59.36 117 -56.72 117 -54 117 C-54 111.39 -54 105.78 -54 100 C-62.91 100 -71.82 100 -81 100 C-81 96.7 -81 93.4 -81 90 C-71.76 90 -62.52 90 -53 90 C-53 92.97 -53 95.94 -53 99 C-47.06 99 -41.12 99 -35 99 C-35 101.97 -35 104.94 -35 108 C-29.39 108 -23.78 108 -18 108 C-18 105.36 -18 102.72 -18 100 C-20.97 100 -23.94 100 -27 100 C-27 96.7 -27 93.4 -27 90 C-24.03 90 -21.06 90 -18 90 C-18 87.36 -18 84.72 -18 82 C-20.97 82 -23.94 82 -27 82 C-27 78.7 -27 75.4 -27 72 C-21.06 72 -15.12 72 -9 72 C-9 66.06 -9 60.12 -9 54 C-5.7 54 -2.4 54 1 54 C1 56.97 1 59.94 1 63 C3.64 63 6.28 63 9 63 C9 54.42 9 45.84 9 37 C6.36 37 3.72 37 1 37 C1 39.97 1 42.94 1 46 C-2.3 46 -5.6 46 -9 46 C-9 42.7 -9 39.4 -9 36 C-6.03 36 -3.06 36 0 36 C0 33.03 0 30.06 0 27 C5.94 27 11.88 27 18 27 C18 24.36 18 21.72 18 19 C15.03 19 12.06 19 9 19 C9 16.03 9 13.06 9 10 C6.03 10 3.06 10 0 10 C0 6.7 0 3.4 0 0 Z " fill="#5D4EA8" transform="translate(101,20)"/>
<path d="M0 0 C21.12 0 42.24 0 64 0 C64 21.12 64 42.24 64 64 C42.88 64 21.76 64 0 64 C0 42.88 0 21.76 0 0 Z " fill="#5D4EA8" transform="translate(20,217)"/>
<path d="M0 0 C21.12 0 42.24 0 64 0 C64 21.12 64 42.24 64 64 C42.88 64 21.76 64 0 64 C0 42.88 0 21.76 0 0 Z " fill="#5D4EA8" transform="translate(217,20)"/>
<path d="M0 0 C21.12 0 42.24 0 64 0 C64 21.12 64 42.24 64 64 C42.88 64 21.76 64 0 64 C0 42.88 0 21.76 0 0 Z " fill="#5D4EA8" transform="translate(20,20)"/>
<path d="M0 0 C14.52 0 29.04 0 44 0 C44 14.52 44 29.04 44 44 C29.48 44 14.96 44 0 44 C0 29.48 0 14.96 0 0 Z " fill="#24F0EA" transform="translate(30,227)"/>
<path d="M0 0 C14.52 0 29.04 0 44 0 C44 14.52 44 29.04 44 44 C29.48 44 14.96 44 0 44 C0 29.48 0 14.96 0 0 Z " fill="#24F0EA" transform="translate(227,30)"/>
<path d="M0 0 C14.52 0 29.04 0 44 0 C44 14.52 44 29.04 44 44 C29.48 44 14.96 44 0 44 C0 29.48 0 14.96 0 0 Z " fill="#24F0EA" transform="translate(30,30)"/>
<path d="M0 0 C2.31 0 4.62 0 7 0 C7 2.97 7 5.94 7 9 C9.97 9 12.94 9 16 9 C16 11.97 16 14.94 16 18 C19.3 18 22.6 18 26 18 C26 15.03 26 12.06 26 9 C28.64 9 31.28 9 34 9 C34 11.97 34 14.94 34 18 C36.97 18 39.94 18 43 18 C43 20.64 43 23.28 43 26 C37.06 26 31.12 26 25 26 C25 29.3 25 32.6 25 36 C30.94 36 36.88 36 43 36 C43 38.64 43 41.28 43 44 C34.42 44 25.84 44 17 44 C17 41.03 17 38.06 17 35 C13.7 35 10.4 35 7 35 C7 37.97 7 40.94 7 44 C4.69 44 2.38 44 0 44 C0 38.06 0 32.12 0 26 C-3.3 26 -6.6 26 -10 26 C-10 28.97 -10 31.94 -10 35 C-15.61 35 -21.22 35 -27 35 C-27 32.03 -27 29.06 -27 26 C-29.97 26 -32.94 26 -36 26 C-36 23.36 -36 20.72 -36 18 C-27.09 18 -18.18 18 -9 18 C-9 15.03 -9 12.06 -9 9 C-6.03 9 -3.06 9 0 9 C0 6.03 0 3.06 0 0 Z " fill="#24F0EA" transform="translate(156,75)"/>
<path d="M0 0 C2.64 0 5.28 0 8 0 C8 5.94 8 11.88 8 18 C14.27 18 20.54 18 27 18 C27 12.06 27 6.12 27 0 C29.64 0 32.28 0 35 0 C35 2.97 35 5.94 35 9 C37.97 9 40.94 9 44 9 C44 11.64 44 14.28 44 17 C41.03 17 38.06 17 35 17 C35 20.3 35 23.6 35 27 C37.97 27 40.94 27 44 27 C44 29.64 44 32.28 44 35 C41.03 35 38.06 35 35 35 C35 37.64 35 40.28 35 43 C29.39 43 23.78 43 18 43 C18 40.36 18 37.72 18 35 C15.03 35 12.06 35 9 35 C9 32.03 9 29.06 9 26 C2.73 26 -3.54 26 -10 26 C-10 28.97 -10 31.94 -10 35 C-12.64 35 -15.28 35 -18 35 C-18 32.03 -18 29.06 -18 26 C-20.97 26 -23.94 26 -27 26 C-27 23.36 -27 20.72 -27 18 C-21.06 18 -15.12 18 -9 18 C-9 15.03 -9 12.06 -9 9 C-6.03 9 -3.06 9 0 9 C0 6.03 0 3.06 0 0 Z " fill="#24F0EA" transform="translate(218,111)"/>
<path d="M0 0 C6.27 0 12.54 0 19 0 C19 2.97 19 5.94 19 9 C21.64 9 24.28 9 27 9 C27 11.97 27 14.94 27 18 C29.64 18 32.28 18 35 18 C35 15.03 35 12.06 35 9 C38.3 9 41.6 9 45 9 C45 11.97 45 14.94 45 18 C47.97 18 50.94 18 54 18 C54 21.3 54 24.6 54 28 C41.79 28 29.58 28 17 28 C17 25.03 17 22.06 17 19 C14.69 19 12.38 19 10 19 C10 21.97 10 24.94 10 28 C6.7 28 3.4 28 0 28 C0 24.7 0 21.4 0 18 C2.97 18 5.94 18 9 18 C9 15.36 9 12.72 9 10 C6.03 10 3.06 10 0 10 C0 6.7 0 3.4 0 0 Z " fill="#5D4EA8" transform="translate(137,253)"/>
<path d="M0 0 C2.64 0 5.28 0 8 0 C8 5.94 8 11.88 8 18 C10.97 18 13.94 18 17 18 C17 20.97 17 23.94 17 27 C19.64 27 22.28 27 25 27 C25 29.64 25 32.28 25 35 C22.36 35 19.72 35 17 35 C17 37.97 17 40.94 17 44 C14.36 44 11.72 44 9 44 C9 41.03 9 38.06 9 35 C5.7 35 2.4 35 -1 35 C-1 37.97 -1 40.94 -1 44 C-3.64 44 -6.28 44 -9 44 C-9 35.42 -9 26.84 -9 18 C-6.03 18 -3.06 18 0 18 C0 12.06 0 6.12 0 0 Z " fill="#24F0EA" transform="translate(129,39)"/>
<path d="M0 0 C9.24 0 18.48 0 28 0 C28 9.24 28 18.48 28 28 C18.76 28 9.52 28 0 28 C0 18.76 0 9.52 0 0 Z " fill="#5D4EA8" transform="translate(38,235)"/>
<path d="M0 0 C9.24 0 18.48 0 28 0 C28 9.24 28 18.48 28 28 C18.76 28 9.52 28 0 28 C0 18.76 0 9.52 0 0 Z " fill="#5D4EA8" transform="translate(235,38)"/>
<path d="M0 0 C9.24 0 18.48 0 28 0 C28 9.24 28 18.48 28 28 C18.76 28 9.52 28 0 28 C0 18.76 0 9.52 0 0 Z " fill="#5D4EA8" transform="translate(38,38)"/>
<path d="M0 0 C8.58 0 17.16 0 26 0 C26 8.58 26 17.16 26 26 C17.42 26 8.84 26 0 26 C0 17.42 0 8.84 0 0 Z " fill="#24F0EA" transform="translate(209,209)"/>
<path d="M0 0 C3.3 0 6.6 0 10 0 C10 5.94 10 11.88 10 18 C12.97 18 15.94 18 19 18 C19 20.97 19 23.94 19 27 C21.64 27 24.28 27 27 27 C27 24.03 27 21.06 27 18 C30.3 18 33.6 18 37 18 C37 24.27 37 30.54 37 37 C27.76 37 18.52 37 9 37 C9 31.06 9 25.12 9 19 C6.03 19 3.06 19 0 19 C0 12.73 0 6.46 0 0 Z " fill="#5D4EA8" transform="translate(92,244)"/>
<path d="M0 0 C2.64 0 5.28 0 8 0 C8 2.97 8 5.94 8 9 C14.27 9 20.54 9 27 9 C27 6.03 27 3.06 27 0 C29.64 0 32.28 0 35 0 C35 5.61 35 11.22 35 17 C23.45 17 11.9 17 0 17 C0 11.39 0 5.78 0 0 Z " fill="#24F0EA" transform="translate(57,182)"/>
<path d="M0 0 C2.64 0 5.28 0 8 0 C8 2.97 8 5.94 8 9 C10.97 9 13.94 9 17 9 C17 14.61 17 20.22 17 26 C14.36 26 11.72 26 9 26 C9 23.03 9 20.06 9 17 C3.06 17 -2.88 17 -9 17 C-9 14.36 -9 11.72 -9 9 C-6.03 9 -3.06 9 0 9 C0 6.03 0 3.06 0 0 Z " fill="#24F0EA" transform="translate(102,93)"/>
<path d="M0 0 C6.27 0 12.54 0 19 0 C19 2.97 19 5.94 19 9 C21.97 9 24.94 9 28 9 C28 12.3 28 15.6 28 19 C24.7 19 21.4 19 18 19 C18 16.03 18 13.06 18 10 C12.06 10 6.12 10 0 10 C0 6.7 0 3.4 0 0 Z " fill="#5D4EA8" transform="translate(38,92)"/>
<path d="M0 0 C2.64 0 5.28 0 8 0 C8 5.61 8 11.22 8 17 C5.03 17 2.06 17 -1 17 C-1 19.97 -1 22.94 -1 26 C-3.64 26 -6.28 26 -9 26 C-9 20.39 -9 14.78 -9 9 C-6.03 9 -3.06 9 0 9 C0 6.03 0 3.06 0 0 Z " fill="#24F0EA" transform="translate(218,245)"/>
<path d="M0 0 C2.64 0 5.28 0 8 0 C8 5.61 8 11.22 8 17 C5.03 17 2.06 17 -1 17 C-1 19.97 -1 22.94 -1 26 C-3.64 26 -6.28 26 -9 26 C-9 20.39 -9 14.78 -9 9 C-6.03 9 -3.06 9 0 9 C0 6.03 0 3.06 0 0 Z " fill="#24F0EA" transform="translate(191,200)"/>
<path d="M0 0 C2.64 0 5.28 0 8 0 C8 2.97 8 5.94 8 9 C10.97 9 13.94 9 17 9 C17 11.64 17 14.28 17 17 C11.39 17 5.78 17 0 17 C0 11.39 0 5.78 0 0 Z " fill="#24F0EA" transform="translate(245,200)"/>
<path d="M0 0 C6.27 0 12.54 0 19 0 C19 3.3 19 6.6 19 10 C12.73 10 6.46 10 0 10 C0 6.7 0 3.4 0 0 Z " fill="#5D4EA8" transform="translate(137,181)"/>
<path d="M0 0 C3.3 0 6.6 0 10 0 C10 6.27 10 12.54 10 19 C6.7 19 3.4 19 0 19 C0 12.73 0 6.46 0 0 Z " fill="#5D4EA8" transform="translate(271,163)"/>
<path d="M0 0 C5.61 0 11.22 0 17 0 C17 2.64 17 5.28 17 8 C11.39 8 5.78 8 0 8 C0 5.36 0 2.72 0 0 Z " fill="#24F0EA" transform="translate(245,227)"/>
<path d="M0 0 C5.61 0 11.22 0 17 0 C17 2.64 17 5.28 17 8 C11.39 8 5.78 8 0 8 C0 5.36 0 2.72 0 0 Z " fill="#24F0EA" transform="translate(66,138)"/>
<path d="M0 0 C2.64 0 5.28 0 8 0 C8 5.61 8 11.22 8 17 C5.36 17 2.72 17 0 17 C0 11.39 0 5.78 0 0 Z " fill="#24F0EA" transform="translate(173,66)"/>
<path d="M0 0 C2.64 0 5.28 0 8 0 C8 5.28 8 10.56 8 16 C5.36 16 2.72 16 0 16 C0 10.72 0 5.44 0 0 Z " fill="#24F0EA" transform="translate(129,147)"/>
<path d="M0 0 C3.3 0 6.6 0 10 0 C10 3.3 10 6.6 10 10 C6.7 10 3.4 10 0 10 C0 6.7 0 3.4 0 0 Z " fill="#5D4EA8" transform="translate(244,262)"/>
<path d="M0 0 C3.3 0 6.6 0 10 0 C10 3.3 10 6.6 10 10 C6.7 10 3.4 10 0 10 C0 6.7 0 3.4 0 0 Z " fill="#5D4EA8" transform="translate(217,217)"/>
<path d="M0 0 C3.3 0 6.6 0 10 0 C10 3.3 10 6.6 10 10 C6.7 10 3.4 10 0 10 C0 6.7 0 3.4 0 0 Z " fill="#5D4EA8" transform="translate(119,181)"/>
<path d="M0 0 C3.3 0 6.6 0 10 0 C10 3.3 10 6.6 10 10 C6.7 10 3.4 10 0 10 C0 6.7 0 3.4 0 0 Z " fill="#5D4EA8" transform="translate(20,181)"/>
<path d="M0 0 C3.3 0 6.6 0 10 0 C10 3.3 10 6.6 10 10 C6.7 10 3.4 10 0 10 C0 6.7 0 3.4 0 0 Z " fill="#5D4EA8" transform="translate(92,154)"/>
<path d="M0 0 C2.64 0 5.28 0 8 0 C8 2.64 8 5.28 8 8 C5.36 8 2.72 8 0 8 C0 5.36 0 2.72 0 0 Z " fill="#24F0EA" transform="translate(93,200)"/>
<path d="M0 0 C2.64 0 5.28 0 8 0 C8 2.64 8 5.28 8 8 C5.36 8 2.72 8 0 8 C0 5.36 0 2.72 0 0 Z " fill="#24F0EA" transform="translate(200,191)"/>
<path d="M0 0 C2.64 0 5.28 0 8 0 C8 2.64 8 5.28 8 8 C5.36 8 2.72 8 0 8 C0 5.36 0 2.72 0 0 Z " fill="#24F0EA" transform="translate(75,173)"/>
<path d="M0 0 C2.64 0 5.28 0 8 0 C8 2.64 8 5.28 8 8 C5.36 8 2.72 8 0 8 C0 5.36 0 2.72 0 0 Z " fill="#24F0EA" transform="translate(66,164)"/>
<path d="M0 0 C2.64 0 5.28 0 8 0 C8 2.64 8 5.28 8 8 C5.36 8 2.72 8 0 8 C0 5.36 0 2.72 0 0 Z " fill="#24F0EA" transform="translate(48,164)"/>
<path d="M0 0 C2.64 0 5.28 0 8 0 C8 2.64 8 5.28 8 8 C5.36 8 2.72 8 0 8 C0 5.36 0 2.72 0 0 Z " fill="#24F0EA" transform="translate(173,138)"/>
<path d="M0 0 C2.64 0 5.28 0 8 0 C8 2.64 8 5.28 8 8 C5.36 8 2.72 8 0 8 C0 5.36 0 2.72 0 0 Z " fill="#24F0EA" transform="translate(30,138)"/>
<path d="M0 0 C2.64 0 5.28 0 8 0 C8 2.64 8 5.28 8 8 C5.36 8 2.72 8 0 8 C0 5.36 0 2.72 0 0 Z " fill="#24F0EA" transform="translate(84,129)"/>
<path d="M0 0 C2.64 0 5.28 0 8 0 C8 2.64 8 5.28 8 8 C5.36 8 2.72 8 0 8 C0 5.36 0 2.72 0 0 Z " fill="#24F0EA" transform="translate(57,129)"/>
<path d="M0 0 C2.64 0 5.28 0 8 0 C8 2.64 8 5.28 8 8 C5.36 8 2.72 8 0 8 C0 5.36 0 2.72 0 0 Z " fill="#24F0EA" transform="translate(93,120)"/>
<path d="M0 0 C2.64 0 5.28 0 8 0 C8 2.64 8 5.28 8 8 C5.36 8 2.72 8 0 8 C0 5.36 0 2.72 0 0 Z " fill="#24F0EA" transform="translate(84,111)"/>
<path d="M0 0 C2.64 0 5.28 0 8 0 C8 2.64 8 5.28 8 8 C5.36 8 2.72 8 0 8 C0 5.36 0 2.72 0 0 Z " fill="#24F0EA" transform="translate(200,102)"/>
<path d="M0 0 C2.64 0 5.28 0 8 0 C8 2.64 8 5.28 8 8 C5.36 8 2.72 8 0 8 C0 5.36 0 2.72 0 0 Z " fill="#24F0EA" transform="translate(111,84)"/>
<path d="M0 0 C2.64 0 5.28 0 8 0 C8 2.64 8 5.28 8 8 C5.36 8 2.72 8 0 8 C0 5.36 0 2.72 0 0 Z " fill="#24F0EA" transform="translate(191,75)"/>
<path d="M0 0 C2.64 0 5.28 0 8 0 C8 2.64 8 5.28 8 8 C5.36 8 2.72 8 0 8 C0 5.36 0 2.72 0 0 Z " fill="#24F0EA" transform="translate(191,30)"/>
<path d="M0 0 C2.64 0 5.28 0 8 0 C8 2.64 8 5.28 8 8 C5.36 8 2.72 8 0 8 C0 5.36 0 2.72 0 0 Z " fill="#24F0EA" transform="translate(120,30)"/>
<path d="M0 0 C2.64 0 5.28 0 8 0 C8 2.31 8 4.62 8 7 C5.36 7 2.72 7 0 7 C0 4.69 0 2.38 0 0 Z " fill="#24F0EA" transform="translate(39,156)"/>
<path d="M0 0 C2.64 0 5.28 0 8 0 C8 2.31 8 4.62 8 7 C5.36 7 2.72 7 0 7 C0 4.69 0 2.38 0 0 Z " fill="#24F0EA" transform="translate(48,147)"/>
</svg>
